<?xml version="1.0" encoding="utf-8"?>
<!-- Generator: Adobe Illustrator 26.0.2, SVG Export Plug-In . SVG Version: 6.00 Build 0)  -->
<svg version="1.1" xmlns="http://www.w3.org/2000/svg" xmlns:xlink="http://www.w3.org/1999/xlink" x="0px" y="0px"
	 viewBox="0 0 930.4 762.4" style="enable-background:new 0 0 930.4 762.4;" xml:space="preserve">
<style type="text/css">
	.st0{fill:none;}
	.st1{fill:#333333;}
	.st2{font-family:'Montserrat-Regular';}
	.st3{font-size:14px;}
	.st4{fill:#454545;stroke:#454545;stroke-width:0.5;stroke-linecap:round;stroke-miterlimit:10;}
	.st5{fill:#454545;}
	.st6{font-family:'Helvetica';}
	.st7{fill:#F44336;}
	.st8{fill:#FF9800;}
	.st9{fill:#FDD835;}
	.st10{fill:#8A0049;}
	.st11{fill:#26A69A;}
	.st12{fill:#4DD0E1;}
	.st13{fill:#C3E7F4;}
	.st14{fill:#5C6BC0;}
	.st15{fill:#90A4AE;}
	.st16{font-size:28px;}
	.st17{enable-background:new    ;}
	.st18{font-size:20px;}
	.st19{fill:none;stroke:#454545;stroke-linecap:round;stroke-miterlimit:10;}
	.st20{fill:none;stroke:#454545;stroke-linecap:round;stroke-miterlimit:10;stroke-dasharray:3.0197,3.0197;}
	.st21{font-size:12px;}
	.st22{font-size:15px;}
	.st23{fill:#454545;stroke:#000000;stroke-width:0.5;stroke-miterlimit:10;}
	.st24{fill:none;stroke:#231F20;stroke-miterlimit:10;}
	.st25{font-size:13px;}
	.st26{font-family:'Helvetica-Light';}
	.st27{font-size:21px;}
</style>
<g id="Layer_1">
	<g id="years" transform="translate(0,490)">
		<g transform="translate(0,0)">
			<line class="st0" x1="71" y1="198.4" x2="71" y2="204.4"/>
			<text transform="matrix(1 0 0 1 70.9756 220.3838)" class="st1 st2 st3">2011</text>
		</g>
		<g transform="translate(88.88888888888889,0)">
			<line class="st0" x1="71" y1="198.4" x2="71" y2="204.4"/>
			<text transform="matrix(1 0 0 1 55.4595 220.3838)" class="st1 st2 st3">2012</text>
		</g>
		<g transform="translate(177.77777777777777,0)">
			<line class="st0" x1="71" y1="198.4" x2="71" y2="204.4"/>
			<text transform="matrix(1 0 0 1 55.4595 220.3838)" class="st1 st2 st3">2013</text>
		</g>
		<g transform="translate(266.66666666666663,0)">
			<line class="st0" x1="71" y1="198.4" x2="71" y2="204.4"/>
			<text transform="matrix(1 0 0 1 55.4594 220.3838)" class="st1 st2 st3">2014</text>
		</g>
		<g transform="translate(355.55555555555554,0)">
			<line class="st0" x1="71" y1="198.4" x2="71" y2="204.4"/>
			<text transform="matrix(1 0 0 1 55.4595 220.3838)" class="st1 st2 st3">2015</text>
		</g>
		<g transform="translate(444.44444444444446,0)">
			<line class="st0" x1="71" y1="198.4" x2="71" y2="204.4"/>
			<text transform="matrix(1 0 0 1 55.4595 220.3838)" class="st1 st2 st3">2016</text>
		</g>
		<g transform="translate(533.3333333333333,0)">
			<line class="st0" x1="71" y1="198.4" x2="71" y2="204.4"/>
			<text transform="matrix(1 0 0 1 55.4594 220.3838)" class="st1 st2 st3">2017</text>
		</g>
		<g transform="translate(622.2222222222223,0)">
			<line class="st0" x1="71" y1="198.4" x2="71" y2="204.4"/>
			<text transform="matrix(1 0 0 1 55.4594 220.3838)" class="st1 st2 st3">2018</text>
		</g>
		<g transform="translate(711.1111111111111,0)">
			<line class="st0" x1="71" y1="198.4" x2="71" y2="204.4"/>
			<text transform="matrix(1 0 0 1 55.4595 220.3838)" class="st1 st2 st3">2019</text>
		</g>
		<g transform="translate(800,0)">
			<line class="st0" x1="71" y1="198.4" x2="71" y2="204.4"/>
			<text transform="matrix(1 0 0 1 35.4595 220.3838)" class="st1 st2 st3">2020</text>
		</g>
	</g>
	<g id="percentages">
		<g transform="translate(0,394)">
			<path class="st4" d="M72,198.4"/>
			<text transform="matrix(1 0 0 1 32.0112 202.9238)" class="st5 st6 st3">20%</text>
		</g>
		<g transform="translate(0,298)">
			<path class="st4" d="M72,198.4"/>
			<text transform="matrix(1 0 0 1 32.0112 202.9238)" class="st5 st6 st3">40%</text>
		</g>
		<g transform="translate(0,202)">
			<path class="st4" d="M72,198.4"/>
			<text transform="matrix(1 0 0 1 32.0112 202.9238)" class="st5 st6 st3">60%</text>
		</g>
		<g transform="translate(0,105.99999999999997)">
			<path class="st4" d="M72,198.4"/>
			<text transform="matrix(1 0 0 1 32.0112 202.9238)" class="st5 st6 st3">80%</text>
		</g>
	</g>
	<g>
		<path class="st7" d="M71,669.2l88.9,4.8h88.9h88.9l88.9,4.8h88.9h88.9l88.9-4.8h88.9l88.9,4.8v9.6h-88.9h-88.9h-88.9h-88.9h-88.9
			h-88.9h-88.9h-88.9H71V669.2z"/>
		<path class="st8" d="M71,621.2l88.9,9.6l88.9,4.8h88.9l88.9,9.6h88.9l88.9-4.8l88.9-9.6l88.9-4.8l88.9,9.6v43.2l-88.9-4.8h-88.9
			l-88.9,4.8h-88.9h-88.9l-88.9-4.8h-88.9h-88.9L71,669.2V621.2z"/>
		<path class="st9" d="M71,621.2l88.9,9.6l88.9,4.8h88.9l88.9,9.6h88.9l88.9-4.8l88.9-14.4l88.9-4.8l88.9,9.6v4.8l-88.9-9.6
			l-88.9,4.8l-88.9,9.6l-88.9,4.8h-88.9l-88.9-9.6h-88.9l-88.9-4.8L71,621.2z"/>
		<path class="st10" d="M71,621.2l88.9,9.6l88.9,4.8h88.9l88.9,9.6h88.9l88.9-9.6l88.9-14.4h88.9l88.9,9.6l0,0l-88.9-9.6l-88.9,4.8
			l-88.9,14.4l-88.9,4.8h-88.9l-88.9-9.6h-88.9l-88.9-4.8L71,621.2z"/>
		<path class="st11" d="M71,477.2l88.9,9.6l88.9-52.8h88.9l88.9-28.8l88.9-9.6l88.9,19.2l88.9,19.2l88.9,4.8l88.9,52.8v139.2
			l-88.9-9.6h-88.9l-88.9,14.4l-88.9,9.6h-88.9l-88.9-9.6h-88.9l-88.9-4.8L71,621.2V477.2z"/>
		<path class="st12" d="M71,477.2l88.9,9.6l88.9-52.8h88.9l88.9-28.8l88.9-9.6l88.9,19.2l88.9,19.2l88.9,4.8l88.9,52.8l0,0
			l-88.9-52.8l-88.9-4.8l-88.9-19.2l-88.9-19.2l-88.9,9.6L337.7,434h-88.9l-88.9,52.8L71,477.2z"/>
		<path class="st13" d="M71,208.4h88.9h88.9l88.9,4.8h88.9l88.9-4.8l88.9,4.8l88.9-4.8l88.9-4.8l88.9,4.8v283.2l-88.9-52.8
			l-88.9-4.8l-88.9-19.2l-88.9-19.2l-88.9,9.6L337.7,434h-88.9l-88.9,52.8L71,477.2V208.4z"/>
		<path class="st14" d="M71,208.4h88.9h88.9l88.9,4.8h88.9l88.9-4.8l88.9,4.8l88.9-4.8l88.9-4.8l88.9,4.8l0,0l-88.9-4.8l-88.9,4.8
			l-88.9,4.8l-88.9-4.8l-88.9,4.8h-88.9l-88.9-4.8h-88.9H71z"/>
		<path class="st15" d="M71,208.4h88.9h88.9l88.9,4.8h88.9l88.9-4.8l88.9,4.8l88.9-4.8l88.9-4.8l88.9,4.8l0,0l-88.9-4.8l-88.9,4.8
			l-88.9,4.8l-88.9-4.8l-88.9,4.8h-88.9l-88.9-4.8h-88.9H71z"/>
	</g>
	<text transform="matrix(1 0 0 1 78.7615 371.1618)" class="st6 st16">Landfills</text>
	<text transform="matrix(1 0 0 1 78.7611 567.053)" class="st17"><tspan x="0" y="0" class="st6 st16">Other </tspan><tspan x="77.8" y="0" class="st6 st18">(bovine, etc.)</tspan></text>
	<text transform="matrix(1 0 0 1 78.7612 661.8343)" class="st6 st16">Natural Gas</text>
	<g>
		<path class="st5" d="M516.3,395.6c0.1-62.4,0.1-124.8,0.2-187.2"/>
		<g>
			<path class="st19" d="M516.3,395.6c0-0.5,0-1,0-1.5"/>
			<path class="st20" d="M516.4,391.1c0.1-59.9,0.1-119.8,0.2-179.7"/>
			<path class="st19" d="M516.5,209.9c0-0.5,0-1,0-1.5"/>
		</g>
	</g>
	<text transform="matrix(1 0 0 1 30.6732 753.5576)" class="st2 st21">Source: https://ghgdata.epa.gov/ghgp/main.do</text>
</g>
<g id="annotations">
	<g>
		<text transform="matrix(1 0 0 1 235.2816 292.8028)"><tspan x="0" y="0" class="st5 st2 st22">In 2016, EPA set standard to</tspan><tspan x="0" y="18" class="st5 st2 st22">reduce waste pollution. IL </tspan><tspan x="0" y="36" class="st5 st2 st22">landfill methane emissions </tspan><tspan x="0" y="54" class="st23 st2 st22">reduced by 17% </tspan><tspan x="119.8" y="54" class="st5 st2 st22">compared to 2011  </tspan></text>
	</g>
	<path class="st24" d="M436.8,309.7c14.4-1.2,52.6-14.6,72.7-20.5"/>
	<g>
		<text transform="matrix(1 0 0 1 614.0108 334.1363)"><tspan x="0" y="0" class="st5 st2 st22">By 2020, IL landfill gases  once </tspan><tspan x="0" y="18" class="st5 st2 st22">again contirbuted </tspan><tspan x="139.8" y="18" class="st23 st2 st22">over 59% </tspan><tspan x="210.3" y="18" class="st5 st2 st22">of the </tspan><tspan x="0" y="36" class="st5 st2 st22">state’s total menthane emissions,</tspan><tspan x="0" y="54" class="st5 st2 st22">echoing the spike in tons of waste</tspan><tspan x="0" y="72" class="st5 st2 st22">sent to the landfills in 2019 </tspan></text>
	</g>
	<path class="st24" d="M826.1,411.3c4,12.5,25.1,45.8,34.9,63.3"/>
	<g>
		<text transform="matrix(1 0 0 1 78.2419 226.2535)"><tspan x="0" y="0" class="st5 st2 st25">Total amount of IL GHG CH4,</tspan><tspan x="0" y="15.6" class="st5 st2 st25">methane, pollution </tspan></text>
	</g>
	<g>
		<rect x="776.7" y="181.6" class="st10" width="14.1" height="14.4"/>
		<g>
			<text transform="matrix(1 0 0 1 797.2941 192.6528)" class="st5 st2 st25">Chemicals</text>
		</g>
	</g>
	<g>
		<rect x="670.6" y="181.9" class="st9" width="14.1" height="14.4"/>
		<g>
			<text transform="matrix(1 0 0 1 691.6354 192.891)" class="st5 st2 st25">Refineries </text>
		</g>
	</g>
	<g>
		<rect x="545.5" y="181.7" class="st7" width="14.1" height="14.4"/>
		<g>
			<text transform="matrix(1 0 0 1 565.2071 192.7024)" class="st5 st2 st25">Power Plants </text>
		</g>
	</g>
	<text transform="matrix(0.8048 0 0 1 32.4829 65.6209)"><tspan x="0" y="0" class="st26 st27">This chart shows the amount of methane produced by Illinois top polluters. The trend capture a picture of federal </tspan><tspan x="0" y="26" class="st26 st27">concern over landfill-produced GHG’s, particuarlly methane - a greenhouse gas 86 times more potent and </tspan><tspan x="0" y="52" class="st26 st27">detrimental to climate change than CO2. As interest in regulating and monitoring waste diversion and landfill gas </tspan><tspan x="0" y="78" class="st26 st27">pollution became of interest, we saw a decrease in methane produced by IL’s landfills. However, as soon as the </tspan><tspan x="0" y="104" class="st26 st27">federal government turned a blindeye, methane emissions from landfill increased.</tspan><tspan x="0" y="130" class="st26 st27"> </tspan></text>
</g>
</svg>
